<svg xmlns="http://www.w3.org/2000/svg" width="30" height="30" viewBox="0 0 30 30"><defs><style>.a,.e{fill:#555;}.b{fill:#0064b1;}.c{fill:#fff;}.d,.e{stroke:none;}</style></defs><path class="a" d="M140.955,99.176V93.648a.584.584,0,1,0-1.167,0v5.528a2.106,2.106,0,0,0-1.383,1.442H135.58a.609.609,0,0,0,0,1.217H138.4a2.069,2.069,0,0,0,1.967,1.531,2.1,2.1,0,0,0,2.052-2.139,2.133,2.133,0,0,0-1.468-2.051Zm-.584,2.973a.923.923,0,1,1,.885-.922A.905.905,0,0,1,140.371,102.149Zm0,0" transform="translate(-127.117 -87.899)"/><path class="a" d="M29.639,20.778a7.682,7.682,0,0,0-3.25-4.606,14.5,14.5,0,0,0,.12-1.853C26.509,6.681,20.581.5,13.255.5S0,6.68,0,14.318c0,9.02,8.206,15.724,16.7,13.346a7.268,7.268,0,0,0,7.634,2.581,7.8,7.8,0,0,0,5.306-9.468Zm-5.6,8.291a6.153,6.153,0,0,1-6.73-2.577l-.02-.03a6.767,6.767,0,0,1-.142-7.207c.273-.451.391-.5.4-.768a.582.582,0,0,0-1.05-.4,7.964,7.964,0,0,0-1.427,5.669,9.36,9.36,0,0,1-11.051-9.44,9.447,9.447,0,0,1,9.234-9.627,8.921,8.921,0,0,1,6.065,2.367L18.656,7a.591.591,0,0,0-.629.556.6.6,0,0,0,.533.657c2.113.181,2,.174,2.044.174a.594.594,0,0,0,.581-.554l.18-2.079a.6.6,0,0,0-.528-.661.591.591,0,0,0-.634.551l-.049.56a10.119,10.119,0,0,0-6.9-2.73,10.641,10.641,0,0,0-10.4,10.844c0,6.838,6.021,11.98,12.461,10.629a8.088,8.088,0,0,0,.673,1.648c-7.6,1.833-14.821-4.211-14.821-12.277a12.366,12.366,0,0,1,12.087-12.6,12.366,12.366,0,0,1,12.087,12.6c0,.418-.02.839-.06,1.258a7.152,7.152,0,0,0-1.653-.49c.017-.256.027-.512.027-.768a11.151,11.151,0,0,0-.913-4.45.574.574,0,0,0-.772-.3.619.619,0,0,0-.293.8,9.9,9.9,0,0,1,.81,3.95c0,.223-.007.447-.022.671a7.2,7.2,0,0,0-1.908.256.611.611,0,0,0-.416.743c.184.73.828.364,1.512.272a6.279,6.279,0,0,1,6.856,4.826,6.575,6.575,0,0,1-4.473,7.982Zm0,0" transform="translate(0 -0.5)"/><g class="b" transform="translate(14.312 14.204)"><path class="d" d="M 7.844059944152832 15.23812007904053 C 3.76695990562439 15.23812007904053 0.4499999582767487 11.9211597442627 0.4499999582767487 7.844059944152832 C 0.4499999582767487 3.76695990562439 3.76695990562439 0.4499999582767487 7.844059944152832 0.4499999582767487 C 11.9211597442627 0.4499999582767487 15.23812007904053 3.76695990562439 15.23812007904053 7.844059944152832 C 15.23812007904053 11.9211597442627 11.9211597442627 15.23812007904053 7.844059944152832 15.23812007904053 Z"/><path class="e" d="M 7.844059944152832 0.8999996185302734 C 4.015089988708496 0.8999996185302734 0.8999996185302734 4.015089988708496 0.8999996185302734 7.844059944152832 C 0.8999996185302734 11.67302989959717 4.015089988708496 14.78812026977539 7.844059944152832 14.78812026977539 C 11.67302989959717 14.78812026977539 14.78812026977539 11.67302989959717 14.78812026977539 7.844059944152832 C 14.78812026977539 4.015089988708496 11.67302989959717 0.8999996185302734 7.844059944152832 0.8999996185302734 M 7.844059944152832 0 C 12.17621040344238 0 15.68811988830566 3.511909484863281 15.68811988830566 7.844059944152832 C 15.68811988830566 12.17621040344238 12.17621040344238 15.68811988830566 7.844059944152832 15.68811988830566 C 3.511909484863281 15.68811988830566 0 12.17621040344238 0 7.844059944152832 C 0 3.511909484863281 3.511909484863281 0 7.844059944152832 0 Z"/></g><path class="c" d="M324.728,309.191H322.4v-.211a.765.765,0,0,1,.273-.518c.765-.762,2.382-1.391,2.382-2.9a1.76,1.76,0,0,0-1.875-1.738,1.665,1.665,0,0,0-1.782,1.6q0,.609.485.609c.295,0,.559-.169.559-.43a.774.774,0,0,1,.21-.591.828.828,0,0,1,1.121.04c.539.648-.1,1.369-.751,1.878-.221.2-1.665,1.013-1.665,2.049v.849c0,.215.28.359.467.359h2.913a.287.287,0,0,0,.233-.152C325.2,309.688,325.006,309.191,324.728,309.191Zm0,0" transform="translate(-302.599 -285.168)"/><path class="c" d="M388.892,307.746v-.958c0-.5-1.085-.5-1.085,0v.958h-.977l1.6-3.343c.222-.464-.689-.886-.96-.29l-1.979,4.023a.383.383,0,0,0,.309.6h2v1.073c0,.489,1.085.5,1.085,0v-1.073h.393c.27,0,.465-.5.25-.845C389.4,307.668,389.211,307.772,388.892,307.746Zm0,0" transform="translate(-362.939 -285.167)"/></svg>