<svg xmlns="http://www.w3.org/2000/svg" xmlns:xlink="http://www.w3.org/1999/xlink" width="318.97" height="272.896" viewBox="0 0 318.97 272.896"><defs><style>.a{opacity:0.5;}.b{fill:url(#a);}.c{fill:#f5f5f5;}.d{fill:#e0e0e0;}.e{fill:#0064b1;}.f{fill:url(#b);}.g{fill:#fda57d;}.h{fill:#333;}.i{opacity:0.1;}.j{fill:#a6a6a6;}.k{fill:url(#c);}.l{fill:url(#d);}.m{fill:#4d8af0;}.n{fill:url(#e);}.o{fill:#fff;}.p{fill:url(#f);}.q{fill:#be7c5e;}.r{fill:#cce0ef;}.s{fill:url(#g);}</style><linearGradient id="a" x1="0.444" y1="2.08" x2="0.444" y2="0.698" gradientUnits="objectBoundingBox"><stop offset="0" stop-color="gray" stop-opacity="0.251"/><stop offset="0.54" stop-color="gray" stop-opacity="0.122"/><stop offset="1" stop-color="gray" stop-opacity="0.102"/></linearGradient><linearGradient id="b" x1="0.027" y1="4.202" x2="0.027" y2="3.205" xlink:href="#a"/><linearGradient id="c" x1="0.684" y1="0.372" x2="0.684" y2="-0.628" xlink:href="#a"/><linearGradient id="d" x1="1.326" y1="-2.088" x2="1.326" y2="-3.089" xlink:href="#a"/><linearGradient id="e" x1="0.5" y1="1" x2="0.5" y2="0" xlink:href="#a"/><linearGradient id="f" x1="-8.568" y1="1" x2="-8.568" y2="0" xlink:href="#a"/><linearGradient id="g" x1="0.5" y1="1" x2="0.5" y2="0" xlink:href="#a"/></defs><g transform="translate(-0.328 -0.023)"><g class="a" transform="translate(146.573 0.023)"><rect class="b" width="199.719" height="144.547" transform="translate(0 197.484) rotate(-81.42)"/></g><rect class="c" width="195.304" height="140.869" transform="translate(148.833 194.872) rotate(-81.42)"/><rect class="d" width="101.671" height="6.163" transform="translate(183.882 88.302) rotate(8.58)"/><rect class="d" width="101.671" height="6.163" transform="translate(181.584 103.533) rotate(8.58)"/><rect class="d" width="52.377" height="6.163" transform="translate(239.977 46.911) rotate(8.58)"/><rect class="e" width="43.135" height="6.163" transform="translate(242.251 62.835) rotate(8.58)"/><rect class="d" width="89.349" height="6.163" transform="translate(179.284 118.766) rotate(8.58)"/><rect class="d" width="77.024" height="6.163" transform="translate(176.984 133.999) rotate(8.58)"/><rect class="d" width="67.782" height="6.163" transform="translate(174.686 149.231) rotate(8.58)"/><rect class="d" width="86.266" height="6.163" transform="translate(172.388 164.464) rotate(8.58)"/><rect class="e" width="33.889" height="6.163" transform="translate(170.093 179.695) rotate(8.58)"/><g class="a" transform="translate(189.262 31.661)"><path class="f" d="M721.807,186.4a20.564,20.564,0,1,0-34.225,12.1v.091a7.037,7.037,0,0,0,2.083,1.824l.04-.088c.828.96,4.641,2.872,9.249,3.554h.1a18.817,18.817,0,0,0,9.173-.682s.033-.051.088-.146a7.325,7.325,0,0,0,2.116-1.025l.066-.226A20.542,20.542,0,0,0,721.807,186.4Z" transform="translate(-680.907 -162.764)"/></g><circle class="c" cx="19.947" cy="19.947" r="19.947" transform="translate(187.035 68.224) rotate(-81.42)"/><path class="g" d="M703.735,235.077s-4.743-.325-4.805,8.425a6.828,6.828,0,0,0,2.021,1.762l3.992-8.549Z" transform="translate(-503.093 -177.03)"/><path class="g" d="M751.048,241.39s4.641,1.095,2.109,9.468a6.826,6.826,0,0,1-2.452,1.095l-1.3-9.344Z" transform="translate(-535.154 -181.04)"/><path class="h" d="M710.9,196.72s-3.218,6.17-4.346,5.375c0,0,10.238,11.942,22.166,3.342a31.342,31.342,0,0,0-3.583-6.568Z" transform="translate(-507.932 -152.669)"/><circle class="h" cx="8.841" cy="8.841" r="8.841" transform="translate(200.558 52.009) rotate(-81.42)"/><path class="i" d="M721.8,237.349l-15.252-2.3-2.342,5.885s-1.263,2.7-.409,4.1,10.14,5.688,17.879,2.919a8.045,8.045,0,0,0,.971-5.053c-.383-2.97-.172-.234-.172-.234Z" transform="translate(-505.994 -177.014)"/><path class="i" d="M722.363,237.439l-15.252-2.3-2.339,5.882s-1.263,2.7-.409,4.1,10.14,5.688,17.879,2.919a8.047,8.047,0,0,0,.971-5.053c-.383-2.97-.172-.234-.172-.234Z" transform="translate(-506.356 -177.071)"/><path class="j" d="M722.047,237.389l-15.252-2.3-2.342,5.885s-1.263,2.7-.409,4.1,10.14,5.688,17.879,2.919a8.045,8.045,0,0,0,.97-5.053c-.383-2.97-.171-.234-.171-.234Z" transform="translate(-506.152 -177.039)"/><path class="i" d="M0,0h6.17V5.568A2.456,2.456,0,0,1,3.718,8.023H2.456A2.456,2.456,0,0,1,0,5.568V0Z" transform="translate(206.077 53.71) rotate(8.58)"/><path class="g" d="M0,0H6.17V5.568A2.456,2.456,0,0,1,3.714,8.024H2.456A2.456,2.456,0,0,1,0,5.568Z" transform="translate(206.11 53.485) rotate(8.58)"/><path class="i" d="M726.77,223.67a8.878,8.878,0,0,0,6.1.938l.113-.748-6.1-.919Z" transform="translate(-520.775 -169.322)"/><circle class="g" cx="8.841" cy="8.841" r="8.841" transform="translate(200.272 53.905) rotate(-81.42)"/><path class="h" d="M717.07,182.121l16.675,2.514s-.409-6.933-6.776-7.469S717.07,182.121,717.07,182.121Z" transform="translate(-514.614 -140.226)"/><ellipse class="g" cx="1.543" cy="0.821" rx="1.543" ry="0.821" transform="translate(200.783 46.218) rotate(-81.42)"/><ellipse class="g" cx="1.543" cy="0.821" rx="1.543" ry="0.821" transform="translate(217.865 48.797) rotate(-81.42)"/><path class="i" d="M717,182.741l16.675,2.514s-.409-6.933-6.776-7.469S717,182.741,717,182.741Z" transform="translate(-514.569 -140.62)"/><g class="a" transform="translate(0.328 28.398)"><rect class="k" width="144.958" height="200.288" transform="matrix(0.987, -0.16, 0.16, 0.987, 0, 23.128)"/></g><rect class="c" width="140.869" height="195.304" transform="translate(2.265 52.342) rotate(-9.31)"/><rect class="d" width="101.671" height="6.163" transform="translate(34.503 132.872) rotate(-9.31)"/><rect class="d" width="101.671" height="6.163" transform="translate(36.995 148.075) rotate(-9.31)"/><rect class="d" width="52.377" height="6.163" transform="translate(75.176 76.252) rotate(-9.31)"/><rect class="e" width="43.135" height="6.163" transform="translate(82.227 90.707) rotate(-9.31)"/><rect class="d" width="89.349" height="6.163" transform="translate(39.487 163.277) rotate(-9.31)"/><rect class="d" width="77.024" height="6.163" transform="translate(41.979 178.476) rotate(-9.31)"/><rect class="d" width="67.782" height="6.163" transform="translate(44.471 193.68) rotate(-9.31)"/><rect class="d" width="86.266" height="6.163" transform="translate(46.964 208.879) rotate(-9.31)"/><rect class="e" width="33.889" height="6.163" transform="translate(49.458 224.083) rotate(-9.31)"/><g class="a" transform="translate(28.274 68.209)"><path class="l" d="M281.693,280.649a21.141,21.141,0,1,0-29.664,22.644l.029.091a7.235,7.235,0,0,0,2.612,1.117v-.1c1.113.679,5.448,1.346,10.173.558h.1A19.332,19.332,0,0,0,273.7,301.4a.6.6,0,0,1,.036-.168,7.531,7.531,0,0,0,1.748-1.671v-.241A21.119,21.119,0,0,0,281.693,280.649Z" transform="translate(-239.688 -262.931)"/></g><circle class="c" cx="20.506" cy="20.506" r="20.506" transform="translate(25.869 72.422) rotate(-9.31)"/><path class="m" d="M272.187,346.48s-4.743,1.186-2.043,9.76a7.019,7.019,0,0,0,2.536,1.095l1.208-9.625Z" transform="translate(-230.23 -247.786)"/><path class="m" d="M317.942,339.445s4.886-.4,5.05,8.6a7.021,7.021,0,0,1-2.054,1.824l-4.218-8.735Z" transform="translate(-260.34 -243.317)"/><circle class="h" cx="9.089" cy="9.089" r="9.089" transform="translate(37.011 74.867) rotate(-9.31)"/><path class="m" d="M291.744,339.49,276.1,342.044l-.434,6.5s-.365,3.039.894,4.138,11.72,2.364,18.393-2.8a8.272,8.272,0,0,0-.646-5.251c-1.314-2.784-.245-.175-.245-.175Z" transform="translate(-234.233 -243.347)"/><path class="m" d="M292.314,339.4l-15.646,2.554-.434,6.5s-.365,3.039.894,4.138,11.72,2.364,18.393-2.8a8.272,8.272,0,0,0-.646-5.251c-1.314-2.784-.245-.175-.245-.175Z" transform="translate(-234.595 -243.289)"/><path class="m" d="M291.994,339.45,276.349,342l-.434,6.509s-.365,3.039.894,4.138,11.72,2.364,18.393-2.8a8.272,8.272,0,0,0-.646-5.25c-1.314-2.784-.244-.175-.244-.175Z" transform="translate(-234.392 -243.321)"/><path class="i" d="M0,0H6.345V5.79A2.456,2.456,0,0,1,3.89,8.246H2.456A2.456,2.456,0,0,1,0,5.79V0Z" transform="translate(45.907 92.711) rotate(-9.31)"/><path class="g" d="M0,0H6.345V5.79A2.456,2.456,0,0,1,3.89,8.246H2.456A2.456,2.456,0,0,1,0,5.79V0Z" transform="translate(45.87 92.48) rotate(-9.31)"/><path class="i" d="M288.124,328.827a9.122,9.122,0,0,0,6.261-1.007l-.128-.77L288,328.079Z" transform="translate(-242.099 -235.446)"/><circle class="g" cx="9.089" cy="9.089" r="9.089" transform="translate(37.333 76.814) rotate(-9.31)"/><path class="i" d="M268.18,287.965l17.109-2.8s-2.594-6.67-8.987-5.167S268.18,287.965,268.18,287.965Z" transform="translate(-229.511 -205.42)"/><path class="h" d="M268.07,287.328l17.123-2.806s-2.594-6.67-8.987-5.167S268.07,287.328,268.07,287.328Z" transform="translate(-229.441 -205.014)"/><ellipse class="g" cx="0.849" cy="1.592" rx="0.849" ry="1.592" transform="matrix(0.987, -0.16, 0.16, 0.987, 37.941, 84.467)"/><ellipse class="g" cx="0.846" cy="1.587" rx="0.846" ry="1.587" transform="translate(55.354 81.066) rotate(-9.31)"/><g class="a" transform="translate(103.332 60.39)"><rect class="n" width="144.547" height="199.719"/></g><rect class="o" width="140.869" height="195.304" transform="translate(105.171 61.86)"/><g class="a" transform="translate(123.983 84.931)"><path class="p" d="M502,330.376a21.615,21.615,0,1,1,33.674,17.941v.095a7.4,7.4,0,0,1-2.452,1.562l-.029-.095c-1.011.868-5.272,2.259-10.169,2.244h-.106a19.866,19.866,0,0,1-9.428-2.149s-.026-.058-.066-.164a7.7,7.7,0,0,1-2.04-1.4l-.033-.244A21.593,21.593,0,0,1,502,330.376Z" transform="translate(-502 -308.761)"/></g><circle class="c" cx="20.965" cy="20.965" r="20.965" transform="translate(124.629 85.58)"/><path class="q" d="M531.907,389.89s-5,.4-3.674,9.527a7.175,7.175,0,0,0,2.379,1.514l2.809-9.512Z" transform="translate(-394.537 -275.357)"/><path class="q" d="M580.5,389.89s5,.4,3.674,9.527a7.176,7.176,0,0,1-2.379,1.514L579,391.39Z" transform="translate(-426.921 -275.357)"/><path class="h" d="M536.91,349s-.383,1.12-.93,2.415c-1.189,2.831.168,13.712,3.014,14.872a16.16,16.16,0,0,0,11.753.544c3.791-1.383,4.958-13.767,2.28-16.784-.314-.365-.642-.7-.985-1.047Z" transform="translate(-399.324 -249.387)"/><circle class="h" cx="9.293" cy="9.293" r="9.293" transform="translate(136.316 89.674)"/><path class="i" d="M551.416,389.89H535.2l-1.514,6.484s-.89,3,.215,4.324,11.431,4.324,19.021.215a8.458,8.458,0,0,0,.215-5.4c-.865-3.025-.215-.215-.215-.215Z" transform="translate(-397.929 -275.357)"/><path class="i" d="M551.993,389.89H535.774l-1.514,6.484s-.89,3,.215,4.324,11.431,4.324,19.021.215a8.458,8.458,0,0,0,.215-5.4c-.865-3.025-.215-.215-.215-.215Z" transform="translate(-398.291 -275.357)"/><path class="r" d="M551.676,389.89H535.464l-1.514,6.484s-.89,3,.215,4.324,11.431,4.324,19.021.215a8.457,8.457,0,0,0,.215-5.4c-.865-3.025-.215-.215-.215-.215Z" transform="translate(-398.094 -275.357)"/><path class="i" d="M389.544,299.11h6.484v5.977a2.456,2.456,0,0,1-2.456,2.456H392a2.456,2.456,0,0,1-2.456-2.456V299.11Z" transform="translate(-247.2 -189.959)"/><path class="q" d="M389.544,298.45h6.484v5.977a2.456,2.456,0,0,1-2.456,2.456H392a2.456,2.456,0,0,1-2.456-2.456V298.45Z" transform="translate(-247.2 -189.54)"/><path class="i" d="M552.35,375.615a9.334,9.334,0,0,0,6.484,0v-.8H552.35Z" transform="translate(-409.995 -265.786)"/><circle class="q" cx="9.293" cy="9.293" r="9.293" transform="translate(136.316 91.692)"/><path class="h" d="M536.91,331.392h17.725s-1.514-7.159-8.213-6.7S536.91,331.392,536.91,331.392Z" transform="translate(-400.189 -233.935)"/><ellipse class="q" cx="0.865" cy="1.62" rx="0.865" ry="1.62" transform="translate(135.645 98.971)"/><ellipse class="q" cx="0.865" cy="1.62" rx="0.865" ry="1.62" transform="translate(153.801 98.971)"/><path class="i" d="M536.91,332.042h17.725s-1.514-7.159-8.213-6.7S536.91,332.042,536.91,332.042Z" transform="translate(-400.189 -234.348)"/><rect class="d" width="101.671" height="6.163" transform="translate(123.954 146.547)"/><rect class="d" width="101.671" height="6.163" transform="translate(123.954 161.951)"/><rect class="d" width="52.377" height="6.163" transform="translate(173.252 97.253)"/><rect class="e" width="43.135" height="6.163" transform="translate(177.871 112.657)"/><rect class="d" width="89.349" height="6.163" transform="translate(123.954 177.356)"/><rect class="d" width="77.024" height="6.163" transform="translate(123.954 192.761)"/><rect class="d" width="67.782" height="6.163" transform="translate(123.954 208.17)"/><rect class="d" width="86.266" height="6.163" transform="translate(123.954 223.574)"/><rect class="e" width="33.889" height="6.163" transform="translate(123.954 238.979)"/><g class="a" transform="translate(207.338 211.337)"><circle class="s" cx="30.791" cy="30.791" r="30.791"/></g><circle class="e" cx="28.978" cy="28.978" r="28.978" transform="translate(209.152 213.15)"/><path class="o" d="M609.718,630.9l10.866,9.961,15.394-22.637,5.437,4.528-20.831,27.165-15.394-17.2Z" transform="translate(-384.166 -392.635)"/></g></svg>