<svg xmlns="http://www.w3.org/2000/svg" width="9.422" height="9" viewBox="0 0 9.422 9"><defs><style>.a{fill:#0064b1;}</style></defs><path class="a" d="M8.939-4.86,6.366-5.235,5.217-7.562a.56.56,0,0,0-.507-.313.556.556,0,0,0-.5.313L3.056-5.235.483-4.861a.562.562,0,0,0-.312.96L2.032-2.091,1.592.467a.564.564,0,0,0,.556.658.555.555,0,0,0,.261-.066L4.71-.148l2.3,1.208A.562.562,0,0,0,7.829.467L7.389-2.09,9.251-3.9A.562.562,0,0,0,8.939-4.86ZM6.8-2.695l-.319.31.075.437L6.9.047,5.1-.9,4.711-1.1V-6.677l.9,1.816.2.4.44.064,2.008.292Z" transform="translate(0 7.875)"/></svg>