<svg xmlns="http://www.w3.org/2000/svg" width="17" height="13.807" viewBox="0 0 17 13.807"><defs><style>.a{fill:#555;}</style></defs><path class="a" d="M15.253-9.838A7.489,7.489,0,0,0,17-11.639a6.985,6.985,0,0,1-2.006.539,3.475,3.475,0,0,0,1.532-1.92,6.859,6.859,0,0,1-2.211.841,3.476,3.476,0,0,0-2.546-1.1A3.483,3.483,0,0,0,8.284-9.794,3.933,3.933,0,0,0,8.37-9a9.9,9.9,0,0,1-7.184-3.646,3.458,3.458,0,0,0-.475,1.758,3.482,3.482,0,0,0,1.553,2.9A3.509,3.509,0,0,1,.69-8.424v.043A3.485,3.485,0,0,0,3.484-4.962a3.684,3.684,0,0,1-.917.119A4.391,4.391,0,0,1,1.909-4.9,3.49,3.49,0,0,0,5.167-2.481,6.978,6.978,0,0,1,.841-.992,7.211,7.211,0,0,1,0-1.035,9.846,9.846,0,0,0,5.35.529a9.845,9.845,0,0,0,9.913-9.913C15.263-9.535,15.263-9.687,15.253-9.838Z" transform="translate(0 13.279)"/></svg>