<svg xmlns="http://www.w3.org/2000/svg" width="14.875" height="14.875" viewBox="0 0 14.875 14.875"><defs><style>.a{fill:#555;}</style></defs><path class="a" d="M13.813-13.812H1.059A1.067,1.067,0,0,0,0-12.74V-.01A1.067,1.067,0,0,0,1.059,1.063H13.813A1.07,1.07,0,0,0,14.875-.01V-12.74A1.07,1.07,0,0,0,13.813-13.812ZM4.5-1.062h-2.2v-7.1H4.5v7.1Zm-1.1-8.068a1.279,1.279,0,0,1-1.278-1.278,1.279,1.279,0,0,1,1.278-1.278,1.281,1.281,0,0,1,1.278,1.278A1.277,1.277,0,0,1,3.393-9.131ZM12.76-1.062h-2.2V-4.516c0-.823-.017-1.883-1.146-1.883-1.149,0-1.325.9-1.325,1.823v3.513H5.88v-7.1H8v.97h.03a2.322,2.322,0,0,1,2.088-1.146c2.231,0,2.646,1.471,2.646,3.383Z" transform="translate(0 13.813)"/></svg>