<svg xmlns="http://www.w3.org/2000/svg" width="9.404" height="9.001" viewBox="0 0 9.404 9.001"><defs><style>.a{fill:#0064b1;}</style></defs><path class="a" d="M9.283-4.86,6.715-5.235,5.567-7.562a.563.563,0,0,0-1.009,0L3.41-5.235.842-4.86a.563.563,0,0,0-.311.96L2.389-2.09,1.949.468a.562.562,0,0,0,.816.592l2.3-1.208L7.36,1.06A.563.563,0,0,0,8.176.468L7.736-2.09,9.594-3.9A.563.563,0,0,0,9.283-4.86ZM6.831-2.385,7.247.047,5.063-1.1,2.878.047l.417-2.433L1.526-4.108l2.443-.355L5.063-6.678,6.156-4.463,8.6-4.108Z" transform="translate(-0.36 7.875)"/></svg>