<svg xmlns="http://www.w3.org/2000/svg" width="16.469" height="16.369" viewBox="0 0 16.469 16.369"><defs><style>.a{fill:#555;}</style></defs><path class="a" d="M16.734-6.375A8.233,8.233,0,0,0,8.5-14.609,8.233,8.233,0,0,0,.266-6.375,8.237,8.237,0,0,0,7.213,1.76V-3.995H5.122v-2.38H7.213V-8.189a2.905,2.905,0,0,1,3.11-3.2,12.673,12.673,0,0,1,1.843.161v2.025H11.128A1.19,1.19,0,0,0,9.787-7.921v1.546H12.07l-.365,2.38H9.787V1.76A8.237,8.237,0,0,0,16.734-6.375Z" transform="translate(-0.266 14.609)"/></svg>