<svg xmlns="http://www.w3.org/2000/svg" width="10.449" height="10.001" viewBox="0 0 10.449 10.001"><defs><style>.a{fill:#ffbf00;}</style></defs><path class="a" d="M10.314-5.4,7.461-5.816,6.186-8.4a.626.626,0,0,0-1.121,0L3.789-5.816.936-5.4A.625.625,0,0,0,.59-4.334L2.654-2.322,2.166.52a.625.625,0,0,0,.906.658L5.625-.164,8.178,1.178A.625.625,0,0,0,9.084.52L8.6-2.322,10.66-4.334A.625.625,0,0,0,10.314-5.4ZM7.59-2.65l.463,2.7L5.625-1.223,3.2.053l.463-2.7L1.7-4.564,4.41-4.959,5.625-7.42,6.84-4.959l2.715.395Z" transform="translate(-0.4 8.75)"/></svg>