<svg xmlns="http://www.w3.org/2000/svg" width="16.469" height="16.469" viewBox="0 0 16.469 16.469"><defs><style>.a{fill:#555;}</style></defs><path class="a" d="M16.469-6.375a8.233,8.233,0,0,0-8.234-8.234A8.233,8.233,0,0,0,0-6.375a8.238,8.238,0,0,0,5.233,7.67,7.971,7.971,0,0,1,.03-2.364c.149-.644.963-4.091.963-4.091A2.967,2.967,0,0,1,5.98-6.382c0-1.146.664-2,1.491-2A1.034,1.034,0,0,1,8.513-7.222a16.546,16.546,0,0,1-.681,2.743A1.194,1.194,0,0,0,9.051-2.992c1.464,0,2.59-1.544,2.59-3.772a3.251,3.251,0,0,0-3.44-3.35A3.563,3.563,0,0,0,4.482-6.541,3.243,3.243,0,0,0,5.09-4.662a.247.247,0,0,1,.056.236c-.063.259-.2.82-.229.933-.037.149-.12.183-.276.11a3.7,3.7,0,0,1-1.67-3.191c0-2.6,1.889-4.984,5.442-4.984A4.833,4.833,0,0,1,13.49-6.8c0,2.839-1.79,5.123-4.273,5.123a2.205,2.205,0,0,1-1.886-.946S6.92-1.053,6.82-.667A9.256,9.256,0,0,1,5.8,1.491a8.2,8.2,0,0,0,2.437.369A8.233,8.233,0,0,0,16.469-6.375Z" transform="translate(0 14.609)"/></svg>