<svg xmlns="http://www.w3.org/2000/svg" width="8.016" height="13.992" viewBox="0 0 8.016 13.992"><defs><style>.a{fill:#555;opacity:0.54;}</style></defs><path class="a" d="M17.7-14.959l-6-6a1.006,1.006,0,0,0-.7-.281,1.006,1.006,0,0,0-.7.281.966.966,0,0,0-.3.7.966.966,0,0,0,.3.7l5.3,5.3-5.3,5.3a.966.966,0,0,0-.3.7.966.966,0,0,0,.3.7,1.135,1.135,0,0,0,.316.234.925.925,0,0,0,.387.07.925.925,0,0,0,.387-.07,1.135,1.135,0,0,0,.316-.234l6-6a.966.966,0,0,0,.3-.7A.966.966,0,0,0,17.7-14.959Z" transform="translate(-9.99 21.24)"/></svg>