<svg xmlns="http://www.w3.org/2000/svg" width="10.469" height="10" viewBox="0 0 10.469 10"><defs><style>.a{fill:#ffbf00;}</style></defs><path class="a" d="M9.933-5.4,7.074-5.816,5.8-8.4a.622.622,0,0,0-.563-.348.617.617,0,0,0-.56.348L3.4-5.817.536-5.4A.625.625,0,0,0,.19-4.335L2.258-2.323,1.768.519a.627.627,0,0,0,.617.731.617.617,0,0,0,.29-.073L5.234-.165,7.791,1.177A.625.625,0,0,0,8.7.519L8.21-2.322l2.069-2.011A.625.625,0,0,0,9.933-5.4ZM7.555-2.994,7.2-2.65l.084.486L7.666.052,5.671-.995l-.437-.229v-6.2l1,2.017.218.442.488.071,2.231.325Z" transform="translate(0 8.75)"/></svg>