<svg xmlns="http://www.w3.org/2000/svg" width="14.883" height="14.88" viewBox="0 0 14.883 14.88"><defs><style>.a{fill:#555;}</style></defs><path class="a" d="M7.441-10.193A3.809,3.809,0,0,0,3.626-6.378,3.809,3.809,0,0,0,7.441-2.563a3.809,3.809,0,0,0,3.815-3.815A3.809,3.809,0,0,0,7.441-10.193Zm0,6.3a2.485,2.485,0,0,1-2.48-2.48,2.483,2.483,0,0,1,2.48-2.48,2.483,2.483,0,0,1,2.48,2.48A2.485,2.485,0,0,1,7.441-3.9ZM12.3-10.349a.89.89,0,0,0-.89-.89.89.89,0,0,0-.89.89.888.888,0,0,0,.89.89A.888.888,0,0,0,12.3-10.349Zm2.527.9a4.4,4.4,0,0,0-1.2-3.118,4.433,4.433,0,0,0-3.118-1.2c-1.229-.07-4.911-.07-6.139,0a4.426,4.426,0,0,0-3.118,1.2A4.418,4.418,0,0,0,.05-9.45C-.02-8.221-.02-4.539.05-3.31a4.4,4.4,0,0,0,1.2,3.118,4.438,4.438,0,0,0,3.118,1.2c1.229.07,4.911.07,6.139,0a4.4,4.4,0,0,0,3.118-1.2,4.433,4.433,0,0,0,1.2-3.118C14.9-4.539,14.9-8.218,14.829-9.446ZM13.241-1.992A2.511,2.511,0,0,1,11.827-.578a16.4,16.4,0,0,1-4.386.3,16.526,16.526,0,0,1-4.386-.3A2.511,2.511,0,0,1,1.64-1.992a16.4,16.4,0,0,1-.3-4.386,16.526,16.526,0,0,1,.3-4.386,2.511,2.511,0,0,1,1.414-1.414,16.4,16.4,0,0,1,4.386-.3,16.526,16.526,0,0,1,4.386.3,2.511,2.511,0,0,1,1.414,1.414,16.4,16.4,0,0,1,.3,4.386A16.389,16.389,0,0,1,13.241-1.992Z" transform="translate(0.002 13.818)"/></svg>