<svg xmlns="http://www.w3.org/2000/svg" width="18.133" height="12.75" viewBox="0 0 18.133 12.75"><defs><style>.a{fill:#555;}</style></defs><path class="a" d="M18.25-10.755a2.278,2.278,0,0,0-1.6-1.614,53.844,53.844,0,0,0-7.085-.381,53.844,53.844,0,0,0-7.085.381,2.278,2.278,0,0,0-1.6,1.614A23.9,23.9,0,0,0,.5-6.362,23.9,23.9,0,0,0,.875-1.969a2.245,2.245,0,0,0,1.6,1.588A53.844,53.844,0,0,0,9.563,0a53.844,53.844,0,0,0,7.085-.381,2.245,2.245,0,0,0,1.6-1.588,23.9,23.9,0,0,0,.379-4.393A23.9,23.9,0,0,0,18.25-10.755ZM7.708-3.666V-9.058l4.739,2.7Z" transform="translate(-0.496 12.75)"/></svg>