<svg xmlns="http://www.w3.org/2000/svg" width="30" height="30" viewBox="0 0 30 30"><defs><style>.a{fill:none;}.b{fill:#0064b1;}.c{fill:#555;}.d{fill:#fff;}</style></defs><g transform="translate(-1 -1)"><path class="a" d="M39.258,2a7.258,7.258,0,1,0,7.258,7.258A7.258,7.258,0,0,0,39.258,2Z" transform="translate(-16 -0.516)"/><circle class="b" cx="4.814" cy="4.814" r="4.814" transform="translate(4.567 17.203)"/><path class="c" d="M38.742,1a7.742,7.742,0,1,0,1.935,15.229v8.965H33.9v.968h7.258a.484.484,0,0,0,.484-.484V15.914A7.739,7.739,0,0,0,38.742,1Zm0,14.516a6.774,6.774,0,1,1,6.774-6.774A6.782,6.782,0,0,1,38.742,15.516Z" transform="translate(-15.484)"/><path class="c" d="M5.776,34.092l3.194,2a.484.484,0,0,0,.513,0l3.194-2a10.1,10.1,0,0,0,4.776-8.617V20.194a.484.484,0,0,0-.484-.484h-.733a9.366,9.366,0,0,1-6.667-2.761.483.483,0,0,0-.684,0,9.46,9.46,0,0,1-2.077,1.566V11.968h7.742V11H6.323a.484.484,0,0,0-.484.484v7.507a9.418,9.418,0,0,1-3.622.719H1.484A.484.484,0,0,0,1,20.194v5.281A10.1,10.1,0,0,0,5.776,34.092ZM1.968,20.677h.249A10.32,10.32,0,0,0,9.226,17.96a10.32,10.32,0,0,0,7.009,2.718h.249v4.8a9.141,9.141,0,0,1-4.321,7.8L9.226,35.107,6.289,33.271a9.141,9.141,0,0,1-4.321-7.8Z" transform="translate(0 -5.161)"/><path class="c" d="M12.323,43.645A5.323,5.323,0,1,0,7,38.323,5.329,5.329,0,0,0,12.323,43.645Zm0-9.677a4.355,4.355,0,1,1-4.355,4.355A4.36,4.36,0,0,1,12.323,33.968Z" transform="translate(-3.035 -16.516)"/><path class="d" d="M15.062,42.738l.04,0a.386.386,0,0,0,.3-.211L17.72,37.9l-.69-.345-2.044,4.088L13.82,40.184l-.6.482,1.542,1.928A.388.388,0,0,0,15.062,42.738Z" transform="translate(-6.364 -18.544)"/><path class="c" d="M26.92,48.813a1.939,1.939,0,0,0,1.434.957v.805a.6.6,0,0,0,1.19,0v-.8a2.167,2.167,0,0,0,.983-.417,1.771,1.771,0,0,0,.784-1.228,1.886,1.886,0,0,0-1.317-2.091c-.189-.058-.259-.118-.45-.175V43.978a.954.954,0,0,1,.342.226,1.558,1.558,0,0,1,.483.708.731.731,0,0,0,.441.484.41.41,0,0,0,.329-.057.421.421,0,0,0,.181-.284,1.624,1.624,0,0,0-.343-1.1,2.075,2.075,0,0,0-.616-.619,2,2,0,0,0-.817-.346V41.927a.6.6,0,0,0-1.19,0v1.047c-.084.013-.047.031-.127.054a1.934,1.934,0,0,0-1.461,1.4,1.8,1.8,0,0,0,.307,1.544,2.364,2.364,0,0,0,1.28.714v2.1a1.1,1.1,0,0,1-.6-.487c-.162-.23-.223-.519-.4-.743a.431.431,0,0,0-.735.019,1.053,1.053,0,0,0,.055.792A2.94,2.94,0,0,0,26.92,48.813Zm2.624-1.89c.092.028.063.057.152.091a.92.92,0,0,1,.588.609.938.938,0,0,1-.151.839.876.876,0,0,1-.589.4ZM27.77,45.138c-.28-.494.155-1.007.585-1.164v1.647A.88.88,0,0,1,27.77,45.138Z" transform="translate(-5.76 -37.5)"/></g></svg>