<svg xmlns="http://www.w3.org/2000/svg" width="30.097" height="27.087" viewBox="0 0 30.097 27.087"><defs><style>.a{fill:#0064b1;}.b{fill:#555;}</style></defs><g transform="translate(-126 -16.4)"><path class="a" d="M173.794,78.317v-3.79l-1.357-.479-1.716.479v3.79l.6.678H173.4Z" transform="translate(-31.262 -40.298)"/><path class="a" d="M154.7,21.944v-2.62l.637-1.086,1.558-.449h9.112l1.109.637.567,1.11v2.809h-2.125V19.867H156.54v2.479H154.7Z" transform="translate(-20.061 -0.971)"/><path class="b" d="M28.592,4.514H22.071V2.508A2.511,2.511,0,0,0,19.563,0H10.534A2.511,2.511,0,0,0,8.026,2.508V4.514H1.5A1.5,1.5,0,0,0,0,6.019V17.185A1.511,1.511,0,0,0,1,18.6v6.981a1.5,1.5,0,0,0,1.5,1.5h25.08a1.5,1.5,0,0,0,1.5-1.5V18.6a1.512,1.512,0,0,0,1-1.417V6.019a1.5,1.5,0,0,0-1.5-1.5ZM9.029,2.508a1.5,1.5,0,0,1,1.5-1.5h9.029a1.5,1.5,0,0,1,1.5,1.5V4.514h-1V2.508a.5.5,0,0,0-.5-.5H10.534a.5.5,0,0,0-.5.5V4.514h-1ZM19.061,4.514H11.035V3.01h8.026ZM28.09,25.582a.5.5,0,0,1-.5.5H2.508a.5.5,0,0,1-.5-.5V18.774L13.042,20.3v1.274a1.5,1.5,0,0,0,1.5,1.5h1a1.5,1.5,0,0,0,1.5-1.5V20.3L28.09,18.774ZM16.052,21.569a.5.5,0,0,1-.5.5h-1a.5.5,0,0,1-.5-.5V18.56a.5.5,0,0,1,.5-.5h1a.5.5,0,0,1,.5.5Zm13.042-4.384a.5.5,0,0,1-.431.5l-.139.019L17.055,19.283V18.56a1.5,1.5,0,0,0-1.5-1.5h-1a1.5,1.5,0,0,0-1.5,1.5v.723l-11.607-1.6a.5.5,0,0,1-.432-.5V6.019a.5.5,0,0,1,.5-.5H28.592a.5.5,0,0,1,.5.5Zm0,0" transform="translate(126 16.4)"/></g></svg>